<mxfile host="app.diagrams.net" agent="Mozilla/5.0 (Windows NT 10.0; Win64; x64) AppleWebKit/537.36 (KHTML, like Gecko) Chrome/129.0.0.0 Safari/537.36" version="24.7.17">
  <diagram name="Page-1" id="qmyugXHZ2QKq4l5u9Nqp">
    <mxGraphModel dx="1450" dy="1067" grid="0" gridSize="10" guides="1" tooltips="1" connect="1" arrows="1" fold="1" page="0" pageScale="1" pageWidth="850" pageHeight="1100" math="0" shadow="0">
      <root>
        <mxCell id="0" />
        <mxCell id="1" parent="0" />
        <mxCell id="02y0pLATXpryfFzA1kKs-1" value="FINCA" style="rounded=0;whiteSpace=wrap;html=1;" parent="1" vertex="1">
          <mxGeometry x="535.5" y="-76" width="58" height="33" as="geometry" />
        </mxCell>
        <mxCell id="02y0pLATXpryfFzA1kKs-2" value="CLIENTE" style="rounded=0;whiteSpace=wrap;html=1;" parent="1" vertex="1">
          <mxGeometry x="-14" y="-77.5" width="69" height="36" as="geometry" />
        </mxCell>
        <mxCell id="02y0pLATXpryfFzA1kKs-3" value="M:M" style="rhombus;whiteSpace=wrap;html=1;" parent="1" vertex="1">
          <mxGeometry x="251.5" y="-88" width="61" height="57" as="geometry" />
        </mxCell>
        <mxCell id="54YJIlI762XzlpyntT7O-1" value="ID_FINCA" style="ellipse;whiteSpace=wrap;html=1;fillColor=#d5e8d4;strokeColor=#82b366;gradientColor=none;strokeWidth=1;" vertex="1" parent="1">
          <mxGeometry x="526" y="-189" width="77" height="32" as="geometry" />
        </mxCell>
        <mxCell id="54YJIlI762XzlpyntT7O-2" value="Nombre_Finca" style="ellipse;whiteSpace=wrap;html=1;" vertex="1" parent="1">
          <mxGeometry x="606" y="-173" width="94" height="36" as="geometry" />
        </mxCell>
        <mxCell id="54YJIlI762XzlpyntT7O-3" value="Precio" style="ellipse;whiteSpace=wrap;html=1;" vertex="1" parent="1">
          <mxGeometry x="635" y="-95" width="50" height="22" as="geometry" />
        </mxCell>
        <mxCell id="54YJIlI762XzlpyntT7O-4" value="Capacidad" style="ellipse;whiteSpace=wrap;html=1;" vertex="1" parent="1">
          <mxGeometry x="620" y="-131" width="78" height="31" as="geometry" />
        </mxCell>
        <mxCell id="54YJIlI762XzlpyntT7O-5" value="Enfoque" style="ellipse;whiteSpace=wrap;html=1;" vertex="1" parent="1">
          <mxGeometry x="632" y="-66" width="56" height="25" as="geometry" />
        </mxCell>
        <mxCell id="54YJIlI762XzlpyntT7O-6" value="ID_CLIENTE" style="ellipse;whiteSpace=wrap;html=1;fillColor=#d5e8d4;strokeColor=#82b366;gradientColor=none;strokeWidth=1;" vertex="1" parent="1">
          <mxGeometry x="-87" y="-123.5" width="77" height="34" as="geometry" />
        </mxCell>
        <mxCell id="54YJIlI762XzlpyntT7O-7" value="Nombre_Cliente" style="ellipse;whiteSpace=wrap;html=1;" vertex="1" parent="1">
          <mxGeometry y="-125.5" width="102" height="32" as="geometry" />
        </mxCell>
        <mxCell id="54YJIlI762XzlpyntT7O-8" value="Telefono" style="ellipse;whiteSpace=wrap;html=1;" vertex="1" parent="1">
          <mxGeometry x="-34" y="-25.5" width="60" height="32" as="geometry" />
        </mxCell>
        <mxCell id="54YJIlI762XzlpyntT7O-9" value="email" style="ellipse;whiteSpace=wrap;html=1;" vertex="1" parent="1">
          <mxGeometry x="41" y="-25.5" width="44" height="30.5" as="geometry" />
        </mxCell>
        <mxCell id="54YJIlI762XzlpyntT7O-10" value="Reserva" style="rounded=0;whiteSpace=wrap;html=1;" vertex="1" parent="1">
          <mxGeometry x="251" y="-118" width="66" height="30" as="geometry" />
        </mxCell>
        <mxCell id="54YJIlI762XzlpyntT7O-11" value="ID_CLIENTE" style="ellipse;whiteSpace=wrap;html=1;gradientColor=#D1D1D1;gradientDirection=west;strokeWidth=1;" vertex="1" parent="1">
          <mxGeometry x="118" y="-147" width="77" height="34" as="geometry" />
        </mxCell>
        <mxCell id="54YJIlI762XzlpyntT7O-12" value="ID_FINCA" style="ellipse;whiteSpace=wrap;html=1;gradientColor=#D1D1D1;gradientDirection=west;strokeWidth=1;" vertex="1" parent="1">
          <mxGeometry x="240" y="-201" width="77" height="34" as="geometry" />
        </mxCell>
        <mxCell id="54YJIlI762XzlpyntT7O-13" value="ID_RESERVA" style="ellipse;whiteSpace=wrap;html=1;fillColor=#d5e8d4;strokeColor=#82b366;gradientColor=none;strokeWidth=1;" vertex="1" parent="1">
          <mxGeometry x="157" y="-186" width="83" height="39" as="geometry" />
        </mxCell>
        <mxCell id="54YJIlI762XzlpyntT7O-14" value="Fecha_ingreso" style="ellipse;whiteSpace=wrap;html=1;" vertex="1" parent="1">
          <mxGeometry x="150" y="-110" width="87" height="32" as="geometry" />
        </mxCell>
        <mxCell id="54YJIlI762XzlpyntT7O-15" value="Fecha_salida" style="ellipse;whiteSpace=wrap;html=1;" vertex="1" parent="1">
          <mxGeometry x="319" y="-186" width="87" height="32" as="geometry" />
        </mxCell>
        <mxCell id="54YJIlI762XzlpyntT7O-16" value="Medio_Pago" style="ellipse;whiteSpace=wrap;html=1;" vertex="1" parent="1">
          <mxGeometry x="331" y="-147" width="84" height="32" as="geometry" />
        </mxCell>
        <mxCell id="54YJIlI762XzlpyntT7O-17" value="Estado" style="ellipse;whiteSpace=wrap;html=1;" vertex="1" parent="1">
          <mxGeometry x="345" y="-111" width="52" height="31" as="geometry" />
        </mxCell>
        <mxCell id="54YJIlI762XzlpyntT7O-18" value="Fecha_nacimiento" style="ellipse;whiteSpace=wrap;html=1;" vertex="1" parent="1">
          <mxGeometry x="-141" y="-83.5" width="110" height="36" as="geometry" />
        </mxCell>
        <mxCell id="54YJIlI762XzlpyntT7O-20" value="Edad" style="ellipse;whiteSpace=wrap;html=1;" vertex="1" parent="1">
          <mxGeometry x="-90" y="-43.5" width="56" height="25" as="geometry" />
        </mxCell>
        <mxCell id="54YJIlI762XzlpyntT7O-21" value="Piscina" style="ellipse;whiteSpace=wrap;html=1;" vertex="1" parent="1">
          <mxGeometry x="469" y="-173" width="57" height="32" as="geometry" />
        </mxCell>
        <mxCell id="54YJIlI762XzlpyntT7O-22" value="Zona_BBQ" style="ellipse;whiteSpace=wrap;html=1;" vertex="1" parent="1">
          <mxGeometry x="445" y="-135" width="71" height="33" as="geometry" />
        </mxCell>
        <mxCell id="54YJIlI762XzlpyntT7O-23" value="Terraza" style="ellipse;whiteSpace=wrap;html=1;" vertex="1" parent="1">
          <mxGeometry x="468" y="-3" width="55" height="32" as="geometry" />
        </mxCell>
        <mxCell id="54YJIlI762XzlpyntT7O-24" value="Spa" style="ellipse;whiteSpace=wrap;html=1;" vertex="1" parent="1">
          <mxGeometry x="462" y="-37" width="43" height="27" as="geometry" />
        </mxCell>
        <mxCell id="54YJIlI762XzlpyntT7O-25" value="Jacuzzi" style="ellipse;whiteSpace=wrap;html=1;" vertex="1" parent="1">
          <mxGeometry x="569" y="32" width="55" height="36" as="geometry" />
        </mxCell>
        <mxCell id="54YJIlI762XzlpyntT7O-26" value="Turco" style="ellipse;whiteSpace=wrap;html=1;" vertex="1" parent="1">
          <mxGeometry x="624" y="19" width="49" height="30" as="geometry" />
        </mxCell>
        <mxCell id="54YJIlI762XzlpyntT7O-27" value="Jardines" style="ellipse;whiteSpace=wrap;html=1;" vertex="1" parent="1">
          <mxGeometry x="505" y="29" width="58" height="33" as="geometry" />
        </mxCell>
        <mxCell id="54YJIlI762XzlpyntT7O-28" value="Zona_&lt;div&gt;Meditacion_&lt;/div&gt;&lt;div&gt;yoga&lt;/div&gt;" style="ellipse;whiteSpace=wrap;html=1;" vertex="1" parent="1">
          <mxGeometry x="622" y="-37" width="74" height="52" as="geometry" />
        </mxCell>
        <mxCell id="54YJIlI762XzlpyntT7O-32" value="" style="endArrow=none;html=1;rounded=0;fontSize=12;startSize=8;endSize=8;curved=1;exitX=1;exitY=0.5;exitDx=0;exitDy=0;entryX=0;entryY=0.5;entryDx=0;entryDy=0;" edge="1" parent="1" source="02y0pLATXpryfFzA1kKs-2" target="02y0pLATXpryfFzA1kKs-3">
          <mxGeometry width="50" height="50" relative="1" as="geometry">
            <mxPoint x="336" y="-48" as="sourcePoint" />
            <mxPoint x="386" y="-98" as="targetPoint" />
          </mxGeometry>
        </mxCell>
        <mxCell id="54YJIlI762XzlpyntT7O-33" value="" style="endArrow=none;html=1;rounded=0;fontSize=12;startSize=8;endSize=8;curved=1;exitX=1;exitY=0.5;exitDx=0;exitDy=0;entryX=0;entryY=0.5;entryDx=0;entryDy=0;" edge="1" parent="1" source="02y0pLATXpryfFzA1kKs-3" target="02y0pLATXpryfFzA1kKs-1">
          <mxGeometry width="50" height="50" relative="1" as="geometry">
            <mxPoint x="336" y="-48" as="sourcePoint" />
            <mxPoint x="386" y="-98" as="targetPoint" />
          </mxGeometry>
        </mxCell>
        <mxCell id="54YJIlI762XzlpyntT7O-34" value="" style="endArrow=none;html=1;rounded=0;fontSize=12;startSize=8;endSize=8;curved=1;exitX=1;exitY=1;exitDx=0;exitDy=0;entryX=0.25;entryY=0;entryDx=0;entryDy=0;" edge="1" parent="1" source="54YJIlI762XzlpyntT7O-6" target="02y0pLATXpryfFzA1kKs-2">
          <mxGeometry width="50" height="50" relative="1" as="geometry">
            <mxPoint x="366" y="-46.5" as="sourcePoint" />
            <mxPoint x="416" y="-96.5" as="targetPoint" />
          </mxGeometry>
        </mxCell>
        <mxCell id="54YJIlI762XzlpyntT7O-35" value="" style="endArrow=none;html=1;rounded=0;fontSize=12;startSize=8;endSize=8;curved=1;exitX=0.5;exitY=1;exitDx=0;exitDy=0;entryX=0.75;entryY=0;entryDx=0;entryDy=0;" edge="1" parent="1" source="54YJIlI762XzlpyntT7O-7" target="02y0pLATXpryfFzA1kKs-2">
          <mxGeometry width="50" height="50" relative="1" as="geometry">
            <mxPoint x="366" y="-46.5" as="sourcePoint" />
            <mxPoint x="416" y="-96.5" as="targetPoint" />
          </mxGeometry>
        </mxCell>
        <mxCell id="54YJIlI762XzlpyntT7O-36" value="" style="endArrow=none;html=1;rounded=0;fontSize=12;startSize=8;endSize=8;curved=1;exitX=1;exitY=0.5;exitDx=0;exitDy=0;entryX=0;entryY=0.5;entryDx=0;entryDy=0;" edge="1" parent="1" source="54YJIlI762XzlpyntT7O-18" target="02y0pLATXpryfFzA1kKs-2">
          <mxGeometry width="50" height="50" relative="1" as="geometry">
            <mxPoint x="366" y="-46.5" as="sourcePoint" />
            <mxPoint x="416" y="-96.5" as="targetPoint" />
          </mxGeometry>
        </mxCell>
        <mxCell id="54YJIlI762XzlpyntT7O-37" value="" style="endArrow=none;html=1;rounded=0;fontSize=12;startSize=8;endSize=8;curved=1;exitX=1;exitY=0.5;exitDx=0;exitDy=0;entryX=0;entryY=1;entryDx=0;entryDy=0;" edge="1" parent="1" source="54YJIlI762XzlpyntT7O-20" target="02y0pLATXpryfFzA1kKs-2">
          <mxGeometry width="50" height="50" relative="1" as="geometry">
            <mxPoint x="366" y="-46.5" as="sourcePoint" />
            <mxPoint x="416" y="-96.5" as="targetPoint" />
          </mxGeometry>
        </mxCell>
        <mxCell id="54YJIlI762XzlpyntT7O-38" value="" style="endArrow=none;html=1;rounded=0;fontSize=12;startSize=8;endSize=8;curved=1;exitX=0.5;exitY=0;exitDx=0;exitDy=0;entryX=0.5;entryY=1;entryDx=0;entryDy=0;" edge="1" parent="1" source="54YJIlI762XzlpyntT7O-8" target="02y0pLATXpryfFzA1kKs-2">
          <mxGeometry width="50" height="50" relative="1" as="geometry">
            <mxPoint x="366" y="-46.5" as="sourcePoint" />
            <mxPoint x="416" y="-96.5" as="targetPoint" />
          </mxGeometry>
        </mxCell>
        <mxCell id="54YJIlI762XzlpyntT7O-39" value="" style="endArrow=none;html=1;rounded=0;fontSize=12;startSize=8;endSize=8;curved=1;exitX=0.5;exitY=0;exitDx=0;exitDy=0;entryX=1;entryY=1;entryDx=0;entryDy=0;" edge="1" parent="1" source="54YJIlI762XzlpyntT7O-9" target="02y0pLATXpryfFzA1kKs-2">
          <mxGeometry width="50" height="50" relative="1" as="geometry">
            <mxPoint x="366" y="-46.5" as="sourcePoint" />
            <mxPoint x="416" y="-96.5" as="targetPoint" />
          </mxGeometry>
        </mxCell>
        <mxCell id="54YJIlI762XzlpyntT7O-40" value="" style="endArrow=none;html=1;rounded=0;fontSize=12;startSize=8;endSize=8;curved=1;entryX=1;entryY=0.5;entryDx=0;entryDy=0;exitX=0;exitY=0.5;exitDx=0;exitDy=0;" edge="1" parent="1" source="54YJIlI762XzlpyntT7O-10" target="54YJIlI762XzlpyntT7O-14">
          <mxGeometry width="50" height="50" relative="1" as="geometry">
            <mxPoint x="336" y="-48" as="sourcePoint" />
            <mxPoint x="386" y="-98" as="targetPoint" />
          </mxGeometry>
        </mxCell>
        <mxCell id="54YJIlI762XzlpyntT7O-41" value="" style="endArrow=none;html=1;rounded=0;fontSize=12;startSize=8;endSize=8;curved=1;exitX=1;exitY=0.5;exitDx=0;exitDy=0;entryX=0;entryY=0.25;entryDx=0;entryDy=0;" edge="1" parent="1" source="54YJIlI762XzlpyntT7O-11" target="54YJIlI762XzlpyntT7O-10">
          <mxGeometry width="50" height="50" relative="1" as="geometry">
            <mxPoint x="336" y="-48" as="sourcePoint" />
            <mxPoint x="386" y="-98" as="targetPoint" />
          </mxGeometry>
        </mxCell>
        <mxCell id="54YJIlI762XzlpyntT7O-42" value="" style="endArrow=none;html=1;rounded=0;fontSize=12;startSize=8;endSize=8;curved=1;exitX=1;exitY=1;exitDx=0;exitDy=0;entryX=0.25;entryY=0;entryDx=0;entryDy=0;" edge="1" parent="1" source="54YJIlI762XzlpyntT7O-13" target="54YJIlI762XzlpyntT7O-10">
          <mxGeometry width="50" height="50" relative="1" as="geometry">
            <mxPoint x="336" y="-48" as="sourcePoint" />
            <mxPoint x="386" y="-98" as="targetPoint" />
          </mxGeometry>
        </mxCell>
        <mxCell id="54YJIlI762XzlpyntT7O-43" value="" style="endArrow=none;html=1;rounded=0;fontSize=12;startSize=8;endSize=8;curved=1;exitX=0.5;exitY=1;exitDx=0;exitDy=0;entryX=0.5;entryY=0;entryDx=0;entryDy=0;" edge="1" parent="1" source="54YJIlI762XzlpyntT7O-12" target="54YJIlI762XzlpyntT7O-10">
          <mxGeometry width="50" height="50" relative="1" as="geometry">
            <mxPoint x="336" y="-48" as="sourcePoint" />
            <mxPoint x="386" y="-98" as="targetPoint" />
          </mxGeometry>
        </mxCell>
        <mxCell id="54YJIlI762XzlpyntT7O-44" value="" style="endArrow=none;html=1;rounded=0;fontSize=12;startSize=8;endSize=8;curved=1;exitX=0;exitY=1;exitDx=0;exitDy=0;entryX=0.75;entryY=0;entryDx=0;entryDy=0;" edge="1" parent="1" source="54YJIlI762XzlpyntT7O-15" target="54YJIlI762XzlpyntT7O-10">
          <mxGeometry width="50" height="50" relative="1" as="geometry">
            <mxPoint x="336" y="-48" as="sourcePoint" />
            <mxPoint x="386" y="-98" as="targetPoint" />
          </mxGeometry>
        </mxCell>
        <mxCell id="54YJIlI762XzlpyntT7O-45" value="" style="endArrow=none;html=1;rounded=0;fontSize=12;startSize=8;endSize=8;curved=1;entryX=0;entryY=1;entryDx=0;entryDy=0;exitX=1;exitY=0.5;exitDx=0;exitDy=0;" edge="1" parent="1" source="54YJIlI762XzlpyntT7O-10" target="54YJIlI762XzlpyntT7O-16">
          <mxGeometry width="50" height="50" relative="1" as="geometry">
            <mxPoint x="336" y="-48" as="sourcePoint" />
            <mxPoint x="386" y="-98" as="targetPoint" />
          </mxGeometry>
        </mxCell>
        <mxCell id="54YJIlI762XzlpyntT7O-46" value="" style="endArrow=none;html=1;rounded=0;fontSize=12;startSize=8;endSize=8;curved=1;entryX=0;entryY=0.5;entryDx=0;entryDy=0;exitX=1;exitY=1;exitDx=0;exitDy=0;" edge="1" parent="1" source="54YJIlI762XzlpyntT7O-10" target="54YJIlI762XzlpyntT7O-17">
          <mxGeometry width="50" height="50" relative="1" as="geometry">
            <mxPoint x="336" y="-48" as="sourcePoint" />
            <mxPoint x="386" y="-98" as="targetPoint" />
          </mxGeometry>
        </mxCell>
        <mxCell id="54YJIlI762XzlpyntT7O-47" value="" style="endArrow=none;html=1;rounded=0;fontSize=12;startSize=8;endSize=8;curved=1;entryX=1;entryY=0.5;entryDx=0;entryDy=0;exitX=0.25;exitY=0;exitDx=0;exitDy=0;" edge="1" parent="1" source="02y0pLATXpryfFzA1kKs-1" target="54YJIlI762XzlpyntT7O-22">
          <mxGeometry width="50" height="50" relative="1" as="geometry">
            <mxPoint x="336" y="-48" as="sourcePoint" />
            <mxPoint x="386" y="-98" as="targetPoint" />
          </mxGeometry>
        </mxCell>
        <mxCell id="54YJIlI762XzlpyntT7O-48" value="" style="endArrow=none;html=1;rounded=0;fontSize=12;startSize=8;endSize=8;curved=1;entryX=1;entryY=0.5;entryDx=0;entryDy=0;exitX=0.5;exitY=0;exitDx=0;exitDy=0;" edge="1" parent="1" source="02y0pLATXpryfFzA1kKs-1" target="54YJIlI762XzlpyntT7O-21">
          <mxGeometry width="50" height="50" relative="1" as="geometry">
            <mxPoint x="336" y="-48" as="sourcePoint" />
            <mxPoint x="386" y="-98" as="targetPoint" />
          </mxGeometry>
        </mxCell>
        <mxCell id="54YJIlI762XzlpyntT7O-49" value="" style="endArrow=none;html=1;rounded=0;fontSize=12;startSize=8;endSize=8;curved=1;entryX=0.5;entryY=1;entryDx=0;entryDy=0;exitX=0.75;exitY=0;exitDx=0;exitDy=0;" edge="1" parent="1" source="02y0pLATXpryfFzA1kKs-1" target="54YJIlI762XzlpyntT7O-1">
          <mxGeometry width="50" height="50" relative="1" as="geometry">
            <mxPoint x="336" y="-48" as="sourcePoint" />
            <mxPoint x="386" y="-98" as="targetPoint" />
          </mxGeometry>
        </mxCell>
        <mxCell id="54YJIlI762XzlpyntT7O-50" value="" style="endArrow=none;html=1;rounded=0;fontSize=12;startSize=8;endSize=8;curved=1;entryX=0;entryY=1;entryDx=0;entryDy=0;exitX=1;exitY=0;exitDx=0;exitDy=0;" edge="1" parent="1" source="02y0pLATXpryfFzA1kKs-1" target="54YJIlI762XzlpyntT7O-2">
          <mxGeometry width="50" height="50" relative="1" as="geometry">
            <mxPoint x="336" y="-48" as="sourcePoint" />
            <mxPoint x="386" y="-98" as="targetPoint" />
          </mxGeometry>
        </mxCell>
        <mxCell id="54YJIlI762XzlpyntT7O-51" value="" style="endArrow=none;html=1;rounded=0;fontSize=12;startSize=8;endSize=8;curved=1;entryX=0;entryY=1;entryDx=0;entryDy=0;exitX=1;exitY=0.5;exitDx=0;exitDy=0;" edge="1" parent="1" source="02y0pLATXpryfFzA1kKs-1" target="54YJIlI762XzlpyntT7O-4">
          <mxGeometry width="50" height="50" relative="1" as="geometry">
            <mxPoint x="336" y="-48" as="sourcePoint" />
            <mxPoint x="386" y="-98" as="targetPoint" />
          </mxGeometry>
        </mxCell>
        <mxCell id="54YJIlI762XzlpyntT7O-52" value="" style="endArrow=none;html=1;rounded=0;fontSize=12;startSize=8;endSize=8;curved=1;entryX=0;entryY=0.5;entryDx=0;entryDy=0;exitX=1;exitY=0.75;exitDx=0;exitDy=0;" edge="1" parent="1" source="02y0pLATXpryfFzA1kKs-1" target="54YJIlI762XzlpyntT7O-5">
          <mxGeometry width="50" height="50" relative="1" as="geometry">
            <mxPoint x="336" y="-48" as="sourcePoint" />
            <mxPoint x="386" y="-98" as="targetPoint" />
          </mxGeometry>
        </mxCell>
        <mxCell id="54YJIlI762XzlpyntT7O-53" value="" style="endArrow=none;html=1;rounded=0;fontSize=12;startSize=8;endSize=8;curved=1;entryX=0;entryY=0.5;entryDx=0;entryDy=0;exitX=1;exitY=1;exitDx=0;exitDy=0;" edge="1" parent="1" source="02y0pLATXpryfFzA1kKs-1" target="54YJIlI762XzlpyntT7O-28">
          <mxGeometry width="50" height="50" relative="1" as="geometry">
            <mxPoint x="336" y="-48" as="sourcePoint" />
            <mxPoint x="386" y="-98" as="targetPoint" />
          </mxGeometry>
        </mxCell>
        <mxCell id="54YJIlI762XzlpyntT7O-54" value="" style="endArrow=none;html=1;rounded=0;fontSize=12;startSize=8;endSize=8;curved=1;entryX=0.75;entryY=1;entryDx=0;entryDy=0;exitX=0;exitY=0;exitDx=0;exitDy=0;" edge="1" parent="1" source="54YJIlI762XzlpyntT7O-26" target="02y0pLATXpryfFzA1kKs-1">
          <mxGeometry width="50" height="50" relative="1" as="geometry">
            <mxPoint x="336" y="-48" as="sourcePoint" />
            <mxPoint x="386" y="-98" as="targetPoint" />
          </mxGeometry>
        </mxCell>
        <mxCell id="54YJIlI762XzlpyntT7O-55" value="" style="endArrow=none;html=1;rounded=0;fontSize=12;startSize=8;endSize=8;curved=1;entryX=0.5;entryY=1;entryDx=0;entryDy=0;exitX=0.5;exitY=0;exitDx=0;exitDy=0;" edge="1" parent="1" source="54YJIlI762XzlpyntT7O-25" target="02y0pLATXpryfFzA1kKs-1">
          <mxGeometry width="50" height="50" relative="1" as="geometry">
            <mxPoint x="336" y="-48" as="sourcePoint" />
            <mxPoint x="386" y="-98" as="targetPoint" />
          </mxGeometry>
        </mxCell>
        <mxCell id="54YJIlI762XzlpyntT7O-56" value="" style="endArrow=none;html=1;rounded=0;fontSize=12;startSize=8;endSize=8;curved=1;entryX=0.25;entryY=1;entryDx=0;entryDy=0;" edge="1" parent="1" source="54YJIlI762XzlpyntT7O-27" target="02y0pLATXpryfFzA1kKs-1">
          <mxGeometry width="50" height="50" relative="1" as="geometry">
            <mxPoint x="336" y="-48" as="sourcePoint" />
            <mxPoint x="386" y="-98" as="targetPoint" />
          </mxGeometry>
        </mxCell>
        <mxCell id="54YJIlI762XzlpyntT7O-57" value="" style="endArrow=none;html=1;rounded=0;fontSize=12;startSize=8;endSize=8;curved=1;entryX=0;entryY=0.75;entryDx=0;entryDy=0;exitX=1;exitY=0;exitDx=0;exitDy=0;" edge="1" parent="1" source="54YJIlI762XzlpyntT7O-24" target="02y0pLATXpryfFzA1kKs-1">
          <mxGeometry width="50" height="50" relative="1" as="geometry">
            <mxPoint x="336" y="-48" as="sourcePoint" />
            <mxPoint x="386" y="-98" as="targetPoint" />
          </mxGeometry>
        </mxCell>
        <mxCell id="54YJIlI762XzlpyntT7O-58" value="" style="endArrow=none;html=1;rounded=0;fontSize=12;startSize=8;endSize=8;curved=1;entryX=0;entryY=1;entryDx=0;entryDy=0;exitX=1;exitY=0;exitDx=0;exitDy=0;" edge="1" parent="1" source="54YJIlI762XzlpyntT7O-23" target="02y0pLATXpryfFzA1kKs-1">
          <mxGeometry width="50" height="50" relative="1" as="geometry">
            <mxPoint x="336" y="-48" as="sourcePoint" />
            <mxPoint x="386" y="-98" as="targetPoint" />
          </mxGeometry>
        </mxCell>
        <mxCell id="54YJIlI762XzlpyntT7O-59" value="" style="endArrow=none;html=1;rounded=0;fontSize=12;startSize=8;endSize=8;curved=1;entryX=0;entryY=0.5;entryDx=0;entryDy=0;exitX=1;exitY=0.75;exitDx=0;exitDy=0;" edge="1" parent="1" source="02y0pLATXpryfFzA1kKs-1" target="54YJIlI762XzlpyntT7O-3">
          <mxGeometry width="50" height="50" relative="1" as="geometry">
            <mxPoint x="336" y="-48" as="sourcePoint" />
            <mxPoint x="386" y="-98" as="targetPoint" />
          </mxGeometry>
        </mxCell>
      </root>
    </mxGraphModel>
  </diagram>
</mxfile>
